<?xml version="1.0" encoding="UTF-8" standalone="no"?>
<!DOCTYPE svg PUBLIC "-//W3C//DTD SVG 1.1//EN" "http://www.w3.org/Graphics/SVG/1.1/DTD/svg11.dtd">
<svg width="100%" height="100%" viewBox="0 0 227 111" version="1.1" xmlns="http://www.w3.org/2000/svg" xmlns:xlink="http://www.w3.org/1999/xlink" xml:space="preserve" xmlns:serif="http://www.serif.com/" style="fill-rule:evenodd;clip-rule:evenodd;stroke-linejoin:round;stroke-miterlimit:2;">
    <g transform="matrix(1,0,0,1,-89.1129,-242.637)">
        <g transform="matrix(0.1,0,0,0.1,0,-13.41)">
            <path d="M1576.95,3100.55L1187.11,3100.55C1191.02,3139.1 1205.39,3168.2 1230.08,3187.81C1256.37,3208.67 1294.69,3219.1 1344.88,3219.1C1409.61,3219.1 1466.45,3203.83 1515.35,3173.32L1524.3,3167.73L1524.3,3315L1521.17,3316.68C1493.05,3331.68 1460.78,3342.97 1424.3,3350.47C1387.89,3357.93 1347.42,3361.68 1302.81,3361.68C1253.87,3361.68 1210.31,3354.84 1172.19,3341.25C1133.87,3327.58 1101.02,3306.99 1073.67,3279.53C1046.41,3252.19 1025.94,3219.37 1012.34,3181.21C998.75,3143.24 991.949,3099.96 991.949,3051.4C991.949,3001.09 999.262,2955.9 1013.91,2915.86C1028.63,2875.66 1050.74,2840.74 1080.23,2811.13C1109.61,2781.56 1142.38,2759.37 1178.55,2744.61C1214.73,2729.8 1254.22,2722.42 1297.03,2722.42C1341.33,2722.42 1380.7,2729.02 1415.16,2742.23C1449.77,2755.51 1479.34,2775.39 1503.79,2801.91C1528.2,2828.44 1546.52,2859.73 1558.71,2895.7C1570.86,2931.48 1576.95,2971.91 1576.95,3016.91L1576.95,3100.55ZM1174.45,3088.87L1565.27,3088.87L1565.27,3016.91C1565.27,2973.16 1559.38,2933.98 1547.66,2899.45C1535.98,2865.04 1518.48,2835.15 1495.2,2809.8C1471.99,2784.65 1443.87,2765.74 1410.98,2753.12C1377.89,2740.47 1339.88,2734.1 1297.03,2734.1C1255.66,2734.1 1217.62,2741.21 1182.97,2755.39C1148.28,2769.53 1116.8,2790.86 1088.52,2819.33C1060.2,2847.77 1038.98,2881.29 1024.88,2919.84C1010.74,2958.51 1003.67,3002.42 1003.67,3051.4C1003.67,3098.63 1010.23,3140.58 1023.32,3177.3C1036.37,3213.87 1055.94,3245.19 1081.95,3271.33C1108.05,3297.5 1139.45,3317.15 1176.13,3330.23C1212.97,3343.4 1255.2,3349.96 1302.81,3349.96C1346.76,3349.96 1386.48,3346.33 1421.95,3339.02C1455.98,3332.03 1486.21,3321.72 1512.58,3308.05L1512.58,3188.59C1463.87,3216.72 1407.97,3230.82 1344.88,3230.82C1291.99,3230.82 1251.25,3219.49 1222.81,3196.91C1194.1,3174.14 1178.13,3140.19 1174.88,3095.12L1174.45,3088.87Z" style="fill:rgb(49,116,184);"/>
        </g>
        <g transform="matrix(0.1,0,0,0.1,0,-70.816)">
            <path d="M1943.91,3209.84L1811.21,3209.84L1811.21,3302.26L1933.16,3302.26L1933.16,3370.93L1811.21,3370.93L1811.21,3517.07L1726.41,3517.07L1726.41,3140.89L1943.91,3140.89L1943.91,3209.84ZM2371.84,3517.07L2279.49,3517.07L2252.73,3433.36L2118.95,3433.36L2092.42,3517.07L2000.55,3517.07L2137.58,3140.89L2238.05,3140.89L2371.84,3517.07ZM2233.28,3368.36L2192.89,3241.91C2189.96,3232.42 2187.81,3221.13 2186.56,3208.04L2184.49,3208.04C2183.59,3219.06 2181.45,3230 2177.93,3240.82L2137.03,3368.36L2233.28,3368.36ZM2744.57,3503.75C2717.15,3516.99 2681.25,3523.63 2637.03,3523.63C2579.34,3523.63 2533.95,3506.68 2500.9,3472.73C2467.77,3438.82 2451.29,3393.59 2451.29,3337.11C2451.29,3276.91 2469.84,3228.12 2506.99,3190.66C2544.14,3153.24 2592.42,3134.53 2651.68,3134.53C2688.4,3134.53 2719.41,3139.18 2744.57,3148.51L2744.57,3230.07C2719.41,3215.04 2690.74,3207.54 2658.52,3207.54C2623.24,3207.54 2594.65,3218.63 2573.01,3240.82C2551.33,3263.04 2540.47,3293.12 2540.47,3331.09C2540.47,3367.46 2550.7,3396.44 2571.21,3418.04C2591.6,3439.61 2619.18,3450.46 2653.83,3450.46C2686.88,3450.46 2717.15,3442.38 2744.57,3426.29L2744.57,3503.75ZM3100.04,3517.07L2874.38,3517.07L2874.38,3140.89L3091.33,3140.89L3091.33,3209.84L2959.18,3209.84L2959.18,3293.55L3082.19,3293.55L3082.19,3362.26L2959.18,3362.26L2959.18,3448.32L3100.04,3448.32L3100.04,3517.07Z" style="fill:rgb(60,197,242);"/>
        </g>
        <g transform="matrix(0.1,0,0,0.1,0,23.215)">
            <path d="M1950.43,3046.91L1726.41,3046.91L1726.41,2670.74L1811.21,2670.74L1811.21,2978.16L1950.43,2978.16L1950.43,3046.91ZM2146.72,3053.48C2092.81,3053.48 2048.95,3035.9 2015,3000.9C1981.05,2965.78 1964.14,2920.12 1964.14,2863.79C1964.14,2804.33 1981.33,2756.25 2015.82,2719.53C2050.31,2682.85 2095.86,2664.37 2152.73,2664.37C2206.45,2664.37 2249.88,2682.03 2283.01,2717.15C2316.17,2752.34 2332.73,2798.71 2332.73,2856.21C2332.73,2915.27 2315.55,2963.01 2281.13,2999.22C2246.84,3035.39 2201.99,3053.48 2146.72,3053.48ZM2150.39,2737.38C2120.66,2737.38 2097.03,2748.48 2079.57,2770.86C2062.11,2793.16 2053.32,2822.62 2053.32,2859.33C2053.32,2896.56 2062.11,2926.05 2079.57,2947.81C2097.03,2969.45 2119.96,2980.31 2148.24,2980.31C2177.54,2980.31 2200.63,2969.73 2217.85,2948.71C2234.92,2927.58 2243.52,2898.36 2243.52,2860.94C2243.52,2821.91 2235.2,2791.56 2218.63,2769.88C2201.99,2748.2 2179.26,2737.38 2150.39,2737.38ZM2554.18,3053.48C2500.27,3053.48 2456.37,3035.9 2422.46,3000.9C2388.52,2965.78 2371.56,2920.12 2371.56,2863.79C2371.56,2804.33 2388.79,2756.25 2423.24,2719.53C2457.73,2682.85 2503.28,2664.37 2560.16,2664.37C2613.91,2664.37 2657.3,2682.03 2690.47,2717.15C2723.59,2752.34 2740.16,2798.71 2740.16,2856.21C2740.16,2915.27 2722.97,2963.01 2688.55,2999.22C2654.3,3035.39 2609.41,3053.48 2554.18,3053.48ZM2557.85,2737.38C2528.13,2737.38 2504.45,2748.48 2486.99,2770.86C2469.53,2793.16 2460.78,2822.62 2460.78,2859.33C2460.78,2896.56 2469.53,2926.05 2486.99,2947.81C2504.45,2969.45 2527.38,2980.31 2555.7,2980.31C2584.96,2980.31 2608.09,2969.73 2625.27,2948.71C2642.38,2927.58 2650.98,2898.36 2650.98,2860.94C2650.98,2821.91 2642.62,2791.56 2626.05,2769.88C2609.41,2748.2 2586.68,2737.38 2557.85,2737.38ZM3115.35,3046.91L3008.24,3046.91L2898.63,2883.51C2896.48,2880.39 2893.16,2873.4 2888.63,2862.73L2887.34,2862.73L2887.34,3046.91L2802.58,3046.91L2802.58,2670.74L2887.34,2670.74L2887.34,2848.59L2888.63,2848.59C2890.78,2843.67 2894.26,2836.68 2899.18,2827.62L3003.05,2670.74L3104.06,2670.74L2972.89,2850.19L3115.35,3046.91Z" style="fill:rgb(51,130,194);"/>
        </g>
        <g transform="matrix(0.1,0,0,0.1,0,99.922)">
            <path d="M946.41,2420.78L946.41,2429.96L901.25,2429.96L901.25,2459.76L920.512,2459.76C930.23,2459.76 937.969,2462.11 943.789,2466.83C949.57,2471.56 952.461,2478.05 952.461,2486.33C952.461,2494.49 949.609,2500.94 943.91,2505.66C938.199,2510.39 930.352,2512.73 920.391,2512.73L891.129,2512.73L891.129,2420.78L946.41,2420.78ZM921.988,2503.59C927.77,2503.59 932.5,2502.03 936.289,2498.94C940.078,2495.82 941.949,2491.64 941.949,2486.33C941.949,2480.47 940.039,2476.09 936.211,2473.16C932.422,2470.23 926.988,2468.79 919.961,2468.79L901.25,2468.79L901.25,2503.59L921.988,2503.59ZM1083.24,2420.78L1083.24,2429.84L1043.05,2429.84L1043.05,2461.91L1081.88,2461.91L1081.88,2470.94L1043.05,2470.94L1043.05,2503.59L1084.3,2503.59L1084.3,2512.73L1032.93,2512.73L1032.93,2420.78L1083.24,2420.78ZM1161.8,2497.5C1165.66,2500.04 1169.69,2501.83 1173.79,2502.89C1177.93,2503.98 1182.23,2504.53 1186.6,2504.53C1193.28,2504.53 1198.44,2503.05 1202.11,2500.16C1205.82,2497.23 1207.66,2493.01 1207.66,2487.54C1207.66,2482.03 1205.66,2477.85 1201.72,2474.92C1197.77,2471.99 1191.68,2470.55 1183.52,2470.55L1173.01,2470.55L1173.01,2461.52L1185.39,2461.52C1191.88,2461.52 1196.99,2460 1200.7,2456.91C1204.45,2453.87 1206.29,2449.88 1206.29,2444.92C1206.29,2439.8 1204.73,2435.86 1201.52,2433.05C1198.32,2430.27 1193.28,2428.87 1186.33,2428.87C1182.66,2428.87 1178.63,2429.41 1174.22,2430.51C1169.8,2431.6 1165.98,2433.16 1162.73,2435.23L1162.73,2425.51C1166.52,2423.55 1170.59,2422.07 1174.96,2421.05C1179.34,2420.08 1183.52,2419.57 1187.58,2419.57C1197.11,2419.57 1204.3,2421.68 1209.14,2425.94C1213.98,2430.16 1216.41,2435.98 1216.41,2443.44C1216.41,2448.83 1214.84,2453.48 1211.76,2457.38C1208.67,2461.33 1204.41,2464.1 1199.02,2465.82C1204.41,2467.07 1208.91,2469.61 1212.42,2473.44C1215.98,2477.26 1217.77,2482.15 1217.77,2488.08C1217.77,2495.82 1215,2502.03 1209.45,2506.8C1203.95,2511.56 1196.41,2513.94 1186.88,2513.94C1182.73,2513.94 1178.28,2513.4 1173.48,2512.26C1168.67,2511.13 1164.77,2509.88 1161.8,2508.44L1161.8,2497.5ZM1392.73,2466.37C1392.73,2479.84 1388.13,2491.17 1378.95,2500.27C1369.73,2509.41 1357.93,2513.94 1343.55,2513.94C1329.8,2513.94 1318.4,2509.41 1309.38,2500.27C1300.31,2491.17 1295.82,2480.16 1295.82,2467.3C1295.82,2453.75 1300.31,2442.38 1309.3,2433.28C1318.28,2424.14 1329.84,2419.57 1343.95,2419.57C1358.13,2419.57 1369.84,2424.14 1378.98,2433.2C1388.16,2442.26 1392.73,2453.32 1392.73,2466.37ZM1306.17,2466.91C1306.17,2477.5 1309.77,2486.41 1316.99,2493.59C1324.18,2500.78 1333.09,2504.37 1343.67,2504.37C1355.43,2504.37 1364.8,2500.66 1371.8,2493.2C1378.75,2485.74 1382.23,2476.87 1382.23,2466.64C1382.23,2456.29 1378.67,2447.46 1371.6,2440.16C1364.49,2432.81 1355.43,2429.14 1344.49,2429.14C1333.09,2429.14 1323.83,2432.81 1316.76,2440.16C1309.73,2447.46 1306.17,2456.41 1306.17,2466.91ZM1475.23,2420.78L1550.74,2420.78L1550.74,2512.73L1540.63,2512.73L1540.63,2429.96L1485.35,2429.96L1485.35,2512.73L1475.23,2512.73L1475.23,2420.78ZM1674.1,2420.27L1715.08,2512.73L1704.69,2512.73L1691.76,2483.91L1649.96,2483.91L1637.54,2512.73L1627.19,2512.73L1666.95,2420.27L1674.1,2420.27ZM1653.87,2474.84L1687.7,2474.84L1670.31,2435.78L1653.87,2474.84ZM1863.36,2426.87L1863.36,2437.77C1858.52,2435 1853.48,2432.85 1848.2,2431.33C1842.93,2429.8 1837.62,2429.02 1832.23,2429.02C1821.17,2429.02 1812.03,2432.69 1804.77,2440C1797.54,2447.34 1793.95,2456.29 1793.95,2466.91C1793.95,2477.69 1797.5,2486.64 1804.65,2493.79C1811.8,2500.94 1820.94,2504.53 1832.07,2504.53C1843.4,2504.53 1854.06,2501.37 1864.02,2495.08L1864.02,2506.29C1858.91,2508.87 1853.67,2510.82 1848.32,2512.07C1842.97,2513.32 1837.46,2513.94 1831.8,2513.94C1817.42,2513.94 1805.78,2509.37 1796.84,2500.19C1787.89,2491.05 1783.4,2480.04 1783.4,2467.19C1783.4,2453.71 1788.05,2442.38 1797.3,2433.28C1806.56,2424.14 1818.16,2419.57 1832.07,2419.57C1837.3,2419.57 1842.5,2420.19 1847.73,2421.48C1852.93,2422.73 1858.16,2424.53 1863.36,2426.87ZM1955.98,2420.78L1955.98,2461.8L2011.8,2461.8L2011.8,2420.78L2021.91,2420.78L2021.91,2512.73L2011.8,2512.73L2011.8,2471.09L1955.98,2471.09L1955.98,2512.73L1945.86,2512.73L1945.86,2420.78L1955.98,2420.78ZM2145.23,2420.27L2186.21,2512.73L2175.86,2512.73L2162.89,2483.91L2121.09,2483.91L2108.71,2512.73L2098.32,2512.73L2138.09,2420.27L2145.23,2420.27ZM2125,2474.84L2158.87,2474.84L2141.48,2435.78L2125,2474.84ZM2327.23,2420.78L2327.23,2512.73L2317.11,2512.73L2317.11,2473.51L2308.63,2473.51C2303.32,2473.51 2299.14,2474.69 2296.02,2477.03C2292.93,2479.37 2289.73,2483.08 2286.37,2488.2L2270.47,2512.73L2258.48,2512.73L2272.77,2490.9L2277.23,2484.41C2279.65,2480.94 2281.88,2478.12 2283.95,2476.09C2286.02,2474.02 2288.44,2472.15 2291.25,2470.55C2284.77,2469.02 2279.8,2466.09 2276.41,2461.8C2273.01,2457.46 2271.29,2452.46 2271.29,2446.83C2271.29,2439.1 2274.02,2432.81 2279.49,2428.01C2285,2423.2 2292.3,2420.78 2301.48,2420.78L2327.23,2420.78ZM2317.11,2429.69L2302.42,2429.69C2295.78,2429.69 2290.66,2431.17 2287.07,2434.06C2283.48,2436.99 2281.68,2441.29 2281.68,2446.95C2281.68,2452.69 2283.55,2457.07 2287.38,2460.12C2291.21,2463.12 2296.95,2464.61 2304.57,2464.61L2317.11,2464.61L2317.11,2429.69ZM2564.77,2426.87L2564.77,2437.77C2559.92,2435 2554.88,2432.85 2549.61,2431.33C2544.34,2429.8 2539.02,2429.02 2533.63,2429.02C2522.58,2429.02 2513.44,2432.69 2506.21,2440C2498.95,2447.34 2495.35,2456.29 2495.35,2466.91C2495.35,2477.69 2498.91,2486.64 2506.05,2493.79C2513.2,2500.94 2522.34,2504.53 2533.52,2504.53C2544.84,2504.53 2555.47,2501.37 2565.47,2495.08L2565.47,2506.29C2560.31,2508.87 2555.08,2510.82 2549.77,2512.07C2544.41,2513.32 2538.91,2513.94 2533.24,2513.94C2518.87,2513.94 2507.19,2509.37 2498.24,2500.19C2489.3,2491.05 2484.84,2480.04 2484.84,2467.19C2484.84,2453.71 2489.45,2442.38 2498.71,2433.28C2507.97,2424.14 2519.57,2419.57 2533.52,2419.57C2538.71,2419.57 2543.91,2420.19 2549.14,2421.48C2554.38,2422.73 2559.57,2424.53 2564.77,2426.87ZM2673.44,2420.78C2682.7,2420.78 2689.92,2423.01 2695.12,2427.38C2700.35,2431.8 2702.97,2438.05 2702.97,2446.13C2702.97,2454.76 2700.2,2461.13 2694.73,2465.23C2689.26,2469.3 2681.56,2471.37 2671.68,2471.37L2657.38,2471.37L2657.38,2512.73L2647.27,2512.73L2647.27,2420.78L2673.44,2420.78ZM2657.38,2462.46L2671.41,2462.46C2679.14,2462.46 2684.61,2461.01 2687.77,2458.12C2690.98,2455.27 2692.58,2451.17 2692.58,2445.86C2692.58,2440.66 2690.94,2436.68 2687.66,2433.87C2684.38,2431.09 2678.95,2429.69 2671.41,2429.69L2657.38,2429.69L2657.38,2462.46ZM2833.44,2420.78L2833.44,2429.84L2793.28,2429.84L2793.28,2461.91L2832.11,2461.91L2832.11,2470.94L2793.28,2470.94L2793.28,2503.59L2834.53,2503.59L2834.53,2512.73L2783.16,2512.73L2783.16,2420.78L2833.44,2420.78ZM2910.27,2503.59L2918.36,2503.59L2950.74,2419.84L2957.34,2419.84L2990.78,2503.59L2998.87,2503.59L2998.87,2531.21L2988.75,2531.21L2988.75,2512.73L2920.39,2512.73L2920.39,2531.21L2910.27,2531.21L2910.27,2503.59ZM2980.51,2503.59L2953.83,2435.51L2928.48,2503.59L2980.51,2503.59ZM3116.25,2420.27L3157.27,2512.73L3146.88,2512.73L3133.91,2483.91L3092.15,2483.91L3079.73,2512.73L3069.34,2512.73L3109.1,2420.27L3116.25,2420.27ZM3096.05,2474.84L3129.88,2474.84L3112.5,2435.78L3096.05,2474.84Z" style="fill:rgb(51,130,194);"/>
        </g>
        <g transform="matrix(-0.1,0,0,0.1,295.25,-42.231)">
            <ellipse cx="1476.25" cy="3186.16" rx="17.66" ry="17.675" style="fill:rgb(49,116,184);"/>
        </g>
        <g transform="matrix(-0.1,0,0,0.1,259.746,-14.512)">
            <circle cx="1298.73" cy="3047.56" r="16.35" style="fill:rgb(49,116,184);"/>
        </g>
        <g transform="matrix(-0.1,0,0,0.1,228.281,-47.774)">
            <ellipse cx="1141.4" cy="3213.87" rx="17.575" ry="17.58" style="fill:rgb(49,116,184);"/>
        </g>
        <g transform="matrix(-0.1,0,0,0.1,260.793,-63.199)">
            <circle cx="1303.96" cy="3290.99" r="16.545" style="fill:rgb(49,116,184);"/>
        </g>
        <g transform="matrix(-0.1,0,0,0.1,260.945,35.98)">
            <ellipse cx="1304.73" cy="2795.1" rx="17.185" ry="17.17" style="fill:rgb(49,116,184);"/>
        </g>
        <g transform="matrix(-0.1,0,0,0.1,220.793,9.313)">
            <ellipse cx="1103.96" cy="2928.43" rx="17.365" ry="17.345" style="fill:rgb(49,116,184);"/>
        </g>
        <g transform="matrix(0.1,0,0,0.1,0,-32.59)">
            <path d="M1146.95,3064.57L1111.33,3336.1L1298.09,3221.92L1454.57,3277.97L1469.96,3094.88L1299.88,2989.22L1263.67,2935.9L1146.95,3064.57ZM1098.16,3346.72L1135.86,3059.49C1178.79,3011.92 1221.95,2964.53 1265,2917.11L1308.09,2980.59L1471.05,3081.84L1471.25,3079.61C1488.09,3090.47 1559.26,3133.28 1566.33,3141.06L1560.08,3150.9L1481.09,3101.84L1464.96,3294.1L1299.38,3234.77L1096.6,3358.79L1098.16,3346.72Z" style="fill:rgb(49,116,184);"/>
        </g>
        <g transform="matrix(0.0993553,0.0113366,0.0113366,-0.0993553,-35.787,580.503)">
            <rect x="1049.7" y="3213.23" width="92.001" height="11.716" style="fill:rgb(49,116,184);"/>
        </g>
        <g transform="matrix(0.1,0,0,0.1,0,12.332)">
            <path d="M1006.76,2757.66L1109.38,2895.74L1145.7,3055.47L1302.27,3026.09L1389.88,2957.7L1516.25,3043.98L1509.69,3053.63L1390.35,2972.15L1307.19,3037.03C1250.47,3047.89 1193.59,3058.36 1136.84,3069.02L1098.55,2900.74L997.379,2764.61L1006.76,2757.66Z" style="fill:rgb(49,116,184);"/>
        </g>
        <g transform="matrix(0.1,0,0,0.1,0,-68.449)">
            <path d="M1613.79,3265.04L1526.68,3265.04C1524.3,3265.04 1522.11,3266.01 1520.55,3267.58C1519.02,3269.14 1518.05,3271.29 1518.05,3273.71C1518.05,3276.09 1519.02,3278.28 1520.55,3279.84C1522.11,3281.4 1524.3,3282.34 1526.68,3282.34L1605.16,3282.34L1605.16,3360.78C1605.16,3363.2 1606.13,3365.35 1607.66,3366.91C1609.22,3368.47 1611.41,3369.45 1613.79,3369.45C1616.21,3369.45 1618.36,3368.47 1619.92,3366.91C1621.45,3365.35 1622.42,3363.2 1622.42,3360.78L1622.42,3273.71C1622.42,3271.29 1621.45,3269.14 1619.92,3267.58C1618.36,3266.01 1616.17,3265.04 1613.79,3265.04Z" style="fill:rgb(51,130,194);"/>
        </g>
        <g transform="matrix(0.1,0,0,0.1,0,-68.449)">
            <path d="M1036.05,3265.04L948.98,3265.04C946.559,3265.04 944.41,3266.01 942.852,3267.54C941.289,3269.14 940.352,3271.29 940.352,3273.71L940.352,3360.78C940.352,3363.2 941.328,3365.35 942.852,3366.91C944.41,3368.47 946.559,3369.45 948.98,3369.45C951.371,3369.45 953.551,3368.47 955.078,3366.91C956.641,3365.39 957.621,3363.2 957.621,3360.78L957.621,3282.34L1036.05,3282.34C1038.48,3282.34 1040.63,3281.37 1042.19,3279.84C1043.75,3278.28 1044.73,3276.09 1044.73,3273.71C1044.73,3271.29 1043.75,3269.14 1042.23,3267.58C1040.63,3266.01 1038.44,3265.04 1036.05,3265.04Z" style="fill:rgb(51,130,194);"/>
        </g>
        <g transform="matrix(0.1,0,0,0.1,0,42.594)">
            <path d="M1526.72,2814.22L1613.79,2814.22C1616.17,2814.22 1618.36,2813.24 1619.88,2811.68C1621.45,2810.15 1622.42,2807.97 1622.42,2805.58L1622.42,2718.47C1622.42,2716.09 1621.45,2713.9 1619.92,2712.38C1618.36,2710.82 1616.21,2709.84 1613.79,2709.84C1611.41,2709.84 1609.22,2710.82 1607.66,2712.38C1606.13,2713.9 1605.16,2716.09 1605.16,2718.47L1605.16,2796.91L1526.72,2796.91C1524.3,2796.91 1522.15,2797.89 1520.59,2799.45C1519.02,2801.01 1518.05,2803.2 1518.05,2805.58C1518.05,2807.97 1519.02,2810.15 1520.55,2811.68C1522.15,2813.24 1524.3,2814.22 1526.72,2814.22Z" style="fill:rgb(51,130,194);"/>
        </g>
        <g transform="matrix(0.1,0,0,0.1,0,42.594)">
            <path d="M948.98,2814.22L1036.05,2814.22C1038.44,2814.22 1040.63,2813.24 1042.19,2811.68C1043.75,2810.15 1044.73,2807.97 1044.73,2805.58C1044.73,2803.2 1043.75,2801.01 1042.19,2799.45C1040.63,2797.89 1038.48,2796.91 1036.05,2796.91L957.621,2796.91L957.621,2718.47C957.621,2716.09 956.641,2713.9 955.078,2712.38C953.551,2710.82 951.371,2709.84 948.98,2709.84C946.559,2709.84 944.41,2710.82 942.852,2712.34C941.328,2713.9 940.352,2716.09 940.352,2718.47L940.352,2805.58C940.352,2807.97 941.328,2810.15 942.852,2811.68C944.41,2813.24 946.602,2814.22 948.98,2814.22Z" style="fill:rgb(51,130,194);"/>
        </g>
        <g transform="matrix(0.1,0,0,0.1,0,-72.067)">
            <path d="M912.379,3264.69L1036.76,3264.69C1039.18,3264.69 1041.33,3265.63 1042.89,3267.19C1044.45,3268.76 1045.39,3270.94 1045.39,3273.33C1045.39,3275.75 1044.45,3277.9 1042.89,3279.46C1041.33,3281.02 1039.18,3281.96 1036.76,3281.96L921.02,3281.96L921.02,3397.35C921.02,3399.73 920.039,3401.92 918.52,3403.48C916.949,3405.01 914.77,3405.98 912.379,3405.98C909.961,3405.98 907.809,3405.01 906.25,3403.48C904.73,3401.92 903.75,3399.73 903.75,3397.35L903.75,3273.33C903.75,3270.94 904.73,3268.76 906.25,3267.19C907.809,3265.67 910,3264.69 912.379,3264.69Z" style="fill:rgb(51,130,194);"/>
        </g>
        <g transform="matrix(0.1,0,0,0.1,0,-72.067)">
            <path d="M1650.16,3264.69L1525.78,3264.69C1523.36,3264.69 1521.17,3265.63 1519.65,3267.19C1518.09,3268.76 1517.11,3270.94 1517.11,3273.33C1517.11,3275.75 1518.09,3277.9 1519.65,3279.46C1521.17,3281.02 1523.36,3281.96 1525.78,3281.96L1641.48,3281.96L1641.48,3397.35C1641.48,3399.73 1642.46,3401.92 1644.02,3403.48C1645.59,3405.01 1647.73,3405.98 1650.16,3405.98C1652.54,3405.98 1654.73,3405.01 1656.29,3403.48C1657.81,3401.92 1658.79,3399.73 1658.79,3397.35L1658.79,3273.33C1658.79,3270.94 1657.81,3268.76 1656.29,3267.19C1654.73,3265.67 1652.54,3264.69 1650.16,3264.69Z" style="fill:rgb(51,130,194);"/>
        </g>
        <g transform="matrix(0.1,0,0,0.1,0,46.551)">
            <path d="M912.379,2812.89L1036.76,2812.89C1039.18,2812.89 1041.33,2811.95 1042.89,2810.39C1044.45,2808.83 1045.39,2806.64 1045.39,2804.26C1045.39,2801.87 1044.45,2799.69 1042.89,2798.12C1041.33,2796.56 1039.18,2795.62 1036.76,2795.62L921.02,2795.62L921.02,2680.23C921.02,2677.85 920.039,2675.66 918.52,2674.14C916.949,2672.58 914.77,2671.6 912.379,2671.6C909.961,2671.6 907.809,2672.58 906.25,2674.1C904.73,2675.66 903.75,2677.85 903.75,2680.23L903.75,2804.26C903.75,2806.64 904.73,2808.83 906.25,2810.39C907.809,2811.95 910,2812.89 912.379,2812.89Z" style="fill:rgb(51,130,194);"/>
        </g>
        <g transform="matrix(0.1,0,0,0.1,0,46.551)">
            <path d="M1650.16,2812.89L1525.78,2812.89C1523.36,2812.89 1521.17,2811.95 1519.65,2810.39C1518.09,2808.83 1517.11,2806.64 1517.11,2804.26C1517.11,2801.87 1518.09,2799.69 1519.65,2798.12C1521.17,2796.56 1523.36,2795.62 1525.78,2795.62L1641.48,2795.62L1641.48,2680.23C1641.48,2677.85 1642.46,2675.66 1644.02,2674.14C1645.59,2672.58 1647.73,2671.6 1650.16,2671.6C1652.54,2671.6 1654.73,2672.58 1656.29,2674.1C1657.81,2675.66 1658.79,2677.85 1658.79,2680.23L1658.79,2804.26C1658.79,2806.64 1657.81,2808.83 1656.29,2810.39C1654.73,2811.95 1652.54,2812.89 1650.16,2812.89Z" style="fill:rgb(51,130,194);"/>
        </g>
        <g transform="matrix(0.1,0,0,0.1,0,-36.906)">
            <path d="M1419.38,3154.84C1418.91,3154.22 1406.88,3139.14 1386.25,3123.98C1358.71,3103.75 1328.75,3093.04 1299.57,3093.04C1270.43,3093.04 1240.47,3103.75 1212.93,3123.98C1192.3,3139.14 1180.27,3154.22 1179.8,3154.84L1175.51,3160.23L1179.8,3165.62C1180.27,3166.25 1192.3,3181.36 1212.93,3196.48C1240.47,3216.72 1270.43,3227.42 1299.57,3227.42C1328.75,3227.42 1358.71,3216.72 1386.25,3196.48C1406.88,3181.36 1418.91,3166.25 1419.38,3165.62L1423.67,3160.23L1419.38,3154.84ZM1223.59,3182.77C1211.91,3174.22 1203.16,3165.58 1198.16,3160.23C1245.12,3109.8 1312.5,3091.64 1375.59,3137.69C1387.27,3146.25 1396.02,3154.88 1401.02,3160.23C1396.02,3165.58 1387.27,3174.22 1375.59,3182.77C1330.43,3215.74 1270.47,3216.99 1223.59,3182.77Z" style="fill:rgb(49,116,184);"/>
        </g>
        <g transform="matrix(0.1,0,0,0.1,0,-36.761)">
            <path d="M1270,3149.68C1269.14,3152.53 1268.67,3155.58 1268.67,3158.7C1268.67,3175.81 1282.5,3189.64 1299.61,3189.64C1316.68,3189.64 1330.51,3175.81 1330.51,3158.7C1330.51,3141.63 1316.68,3127.77 1299.61,3127.77C1291.29,3127.77 1283.71,3131.09 1278.16,3136.44L1293.44,3153.63L1270,3149.68ZM1299.06,3099.88C1315.7,3099.88 1330.78,3106.79 1341.48,3117.92L1338.48,3116.75C1349.73,3127.22 1356.84,3142.14 1356.84,3158.7C1356.84,3175.27 1349.73,3190.19 1338.48,3200.66L1341.72,3199.41C1331.02,3210.7 1315.86,3217.73 1299.06,3217.73C1281.91,3217.73 1266.45,3210.38 1255.7,3198.7C1257.34,3199.37 1259.02,3200.03 1260.7,3200.66C1249.45,3190.19 1242.34,3175.27 1242.34,3158.7C1242.34,3154.09 1242.93,3149.6 1243.95,3145.31L1254.57,3147.06C1253.59,3150.81 1253.09,3154.68 1253.09,3158.7C1253.09,3184.33 1273.95,3205.19 1299.61,3205.19C1325.23,3205.19 1346.09,3184.33 1346.09,3158.7C1346.09,3133.08 1325.23,3112.22 1299.61,3112.22C1287.3,3112.22 1276.17,3116.99 1267.85,3124.8L1260.7,3116.75C1259.1,3117.34 1257.5,3118 1255.94,3118.63C1266.68,3107.1 1282.03,3099.88 1299.06,3099.88Z" style="fill:rgb(49,116,184);"/>
        </g>
    </g>
</svg>
