<svg width="21" height="21" viewBox="0 0 21 21" fill="none" xmlns="http://www.w3.org/2000/svg">
<path fill-rule="evenodd" clip-rule="evenodd" d="M0.424059 20.5759C0.989472 21.1414 1.90863 21.1414 2.47404 20.5759L10.5 12.55L18.526 20.5759C19.0914 21.1414 20.0105 21.1414 20.5759 20.5759C21.1414 20.0105 21.1414 19.0914 20.5759 18.526L12.55 10.5L20.5759 2.47404C21.1414 1.90863 21.1414 0.989472 20.5759 0.424059C20.0105 -0.141353 19.0914 -0.141353 18.526 0.424059L10.5 8.45002L2.47404 0.424059C1.90863 -0.141353 0.989472 -0.141353 0.424059 0.424059C-0.141353 0.989472 -0.141353 1.90863 0.424059 2.47404L8.45002 10.5L0.424059 18.526C-0.141353 19.0914 -0.141353 20.0105 0.424059 20.5759Z" fill="#2C2C2C"/>
</svg>
