<svg width="49" height="49" viewBox="0 0 49 49" fill="none" xmlns="http://www.w3.org/2000/svg">
<path d="M24.5 0C10.99 0 0 10.99 0 24.5C0 38.01 10.99 49 24.5 49C38.01 49 49 38.01 49 24.5C49 10.99 38.01 0 24.5 0ZM12.38 22.15C12.14 22.15 11.9 22.09 11.67 21.97C10.94 21.58 10.66 20.67 11.05 19.94C12.1 17.98 14.13 16.76 16.36 16.76C18.45 16.76 20.35 17.82 21.46 19.59C21.9 20.29 21.68 21.22 20.98 21.66C20.28 22.1 19.35 21.88 18.91 21.18C18.35 20.29 17.4 19.76 16.35 19.76C15.24 19.76 14.22 20.37 13.69 21.36C13.44 21.86 12.92 22.15 12.38 22.15ZM35.92 33.08C33.68 37.27 29.34 39.87 24.59 39.87C20.14 39.87 16.07 37.61 13.7 33.83C13.26 33.13 13.47 32.2 14.18 31.76C14.88 31.32 15.81 31.53 16.25 32.24C18.06 35.14 21.18 36.87 24.6 36.87C28.24 36.87 31.56 34.88 33.28 31.66C33.67 30.93 34.58 30.65 35.31 31.04C36.04 31.44 36.31 32.35 35.92 33.08ZM37.99 21.66C37.29 22.1 36.36 21.88 35.92 21.18C35.36 20.29 34.41 19.76 33.36 19.76C32.25 19.76 31.23 20.37 30.7 21.36C30.43 21.87 29.91 22.15 29.38 22.15C29.14 22.15 28.9 22.09 28.67 21.97C27.94 21.58 27.66 20.67 28.05 19.94C29.1 17.98 31.13 16.76 33.36 16.76C35.45 16.76 37.35 17.82 38.46 19.59C38.9 20.29 38.69 21.22 37.99 21.66Z" fill="#247ABF"/>
</svg>
