<svg width="242" height="413" viewBox="0 0 242 413" fill="none" xmlns="http://www.w3.org/2000/svg">
<path d="M241.173 116.748C241.173 125.06 240.281 133.49 238.419 141.904C233.235 165.326 221.276 186.177 203.847 202.217C181.584 222.697 164.535 249.952 154.54 281.023C140.207 325.571 110.082 363.18 69.7141 386.917C28.8804 410.93 -18.9373 418.525 -64.9391 408.304C-113.913 397.421 -155.911 367.691 -183.195 324.57C-210.488 281.441 -219.668 230.284 -209.044 180.507C-199.406 135.351 -174.031 95.2345 -137.589 67.5464C-101.528 40.1502 -57.1713 26.7123 -12.6826 29.6932C19.4597 31.8461 50.5854 25.9474 77.319 12.6356C101.011 0.838043 128.21 -2.21384 153.919 4.0556C205.834 16.7206 241.173 64.4867 241.173 116.748ZM-212.847 221.144C-212.847 257.357 -202.603 292.954 -182.768 324.294C-155.554 367.297 -113.673 396.956 -64.8305 407.807C-18.9528 417.996 28.7408 410.426 69.458 386.483C109.717 362.809 139.764 325.303 154.051 280.873C164.077 249.715 181.172 222.39 203.498 201.846C220.857 185.877 232.754 165.113 237.914 141.802C239.769 133.427 240.661 125.028 240.661 116.756C240.661 64.7232 205.485 17.1701 153.795 4.56815C128.202 -1.66974 101.119 1.36642 77.5362 13.1088C50.7251 26.4678 19.514 32.3824 -12.7137 30.2137C-57.0859 27.2328 -101.326 40.6391 -137.287 67.9644C-173.635 95.5736 -198.94 135.588 -208.555 180.625C-211.426 194.087 -212.847 207.659 -212.847 221.144Z" fill="url(#paint0_linear)"/>
<path d="M230.41 121.487C230.41 129.366 229.564 137.354 227.795 145.335C222.883 167.526 211.553 187.297 195.032 202.493C173.94 221.901 157.783 247.72 148.308 277.167C134.728 319.389 106.179 355.026 67.9214 377.525C29.2296 400.276 -16.0894 407.476 -59.6856 397.792C-106.099 387.485 -145.9 359.3 -171.757 318.442C-197.614 277.569 -206.32 229.077 -196.248 181.911C-187.114 139.113 -163.066 101.094 -128.525 74.8569C-94.35 48.8959 -52.3136 36.1599 -10.1529 38.9831C20.3054 41.0256 49.7938 35.4344 75.1228 22.8167C97.5727 11.6342 123.36 8.74789 147.718 14.6861C196.917 26.6887 230.41 71.9549 230.41 121.487ZM227.306 145.217C240.118 87.3564 204.359 29.023 147.602 15.1829C123.352 9.26837 97.6891 12.1468 75.3401 23.274C49.9335 35.9312 20.352 41.5382 -10.1917 39.4879C-52.2359 36.6646 -94.156 49.3691 -128.231 75.2591C-162.67 101.425 -186.656 139.334 -195.759 182.013C-205.8 229.046 -197.117 277.395 -171.33 318.151C-145.543 358.906 -105.858 387.012 -59.577 397.295C-16.1049 406.956 29.0821 399.772 67.6731 377.083C105.822 354.655 134.294 319.113 147.835 277.009C157.333 247.483 173.536 221.585 194.698 202.115C211.142 186.981 222.417 167.313 227.306 145.217Z" fill="url(#paint1_linear)"/>
<path d="M219.654 126.227C219.654 133.671 218.855 141.218 217.187 148.757C212.546 169.726 201.837 188.401 186.224 202.769C166.296 221.104 151.032 245.496 142.084 273.31C129.249 313.198 102.283 346.879 66.1364 368.132C29.5708 389.63 -13.2417 396.428 -54.4323 387.28C-98.2846 377.541 -135.89 350.909 -160.319 312.307C-184.755 273.689 -192.973 227.886 -183.467 183.314C-174.838 142.882 -152.116 106.961 -119.485 82.1673C-87.1954 57.6415 -47.4792 45.6074 -7.63884 48.2807C21.1356 50.2128 48.9943 44.9291 72.9187 33.0133C94.1348 22.4459 118.494 19.7173 141.51 25.3322C188.009 36.6488 219.647 79.4308 219.654 126.227ZM-186.812 219.693C-186.812 252.112 -177.647 283.972 -159.892 312.023C-135.533 350.515 -98.044 377.06 -54.3236 386.775C-13.2572 395.899 29.4311 389.117 65.8803 367.683C101.918 346.493 128.815 312.922 141.603 273.145C150.574 245.244 165.885 220.781 185.882 202.383C201.418 188.093 212.073 169.506 216.69 148.639C218.351 141.139 219.15 133.624 219.15 126.219C219.15 79.6437 187.66 37.0825 141.402 25.8054C118.494 20.222 94.2512 22.9348 73.1437 33.4549C49.134 45.4102 21.1899 50.7097 -7.66991 48.7776C-47.3861 46.1121 -86.9859 58.1147 -119.183 82.5694C-151.713 107.284 -174.372 143.103 -182.978 183.417C-185.539 195.475 -186.812 207.619 -186.812 219.693Z" fill="url(#paint2_linear)"/>
<path d="M208.891 130.966C208.891 137.977 208.139 145.082 206.563 152.18C202.194 171.927 192.106 189.513 177.409 203.037C158.652 220.3 144.281 243.264 135.861 269.446C123.779 307.007 98.3798 338.717 64.3518 358.724C29.928 378.968 -10.3934 385.371 -49.1706 376.752C-90.4621 367.58 -125.871 342.511 -148.872 306.156C-171.881 269.793 -179.618 226.664 -170.663 184.702C-162.538 146.628 -141.143 112.805 -110.421 89.4619C-80.0248 66.3635 -42.6211 55.0312 -5.10883 57.5547C21.9739 59.3686 48.203 54.4003 70.7306 43.1784C90.7051 33.2262 113.644 30.6553 135.326 35.939C179.093 46.6168 208.891 86.8989 208.891 130.966ZM206.074 152.07C217.466 100.621 185.673 48.746 135.201 36.4437C113.636 31.1837 90.8215 33.7467 70.9479 43.6437C48.3427 54.9051 22.0282 59.8891 -5.14763 58.0674C-42.5358 55.5596 -79.823 66.8525 -110.126 89.8799C-140.755 113.152 -162.08 146.865 -170.182 184.82C-179.113 226.656 -171.392 269.651 -148.453 305.896C-125.522 342.132 -90.2293 367.123 -49.0697 376.271C-10.409 384.859 29.7805 378.479 64.0957 358.299C98.0228 338.347 123.336 306.747 135.38 269.304C143.831 243.036 158.249 219.992 177.067 202.675C191.703 189.205 201.729 171.714 206.074 152.07Z" fill="url(#paint3_linear)"/>
<path d="M198.128 135.706C198.128 142.283 197.422 148.947 195.947 155.602C191.842 174.127 182.39 190.625 168.601 203.305C151.009 219.488 137.537 241.025 129.637 265.582C118.308 300.817 94.484 330.555 62.559 349.324C30.2692 368.314 -7.5457 374.315 -43.925 366.232C-82.6557 357.628 -115.861 334.112 -137.442 300.012C-159.023 265.905 -166.286 225.45 -157.882 186.09C-150.262 150.382 -130.194 118.656 -101.373 96.7565C-72.8625 75.0934 -37.779 64.463 -2.59476 66.8288C22.804 68.5322 47.4035 63.8715 68.5265 53.3515C87.2671 44.0143 108.786 41.6091 129.117 46.5616C170.176 56.5848 198.128 94.367 198.128 135.706ZM-160.777 218.234C-160.777 246.852 -152.683 274.982 -137.007 299.744C-115.504 333.725 -82.4074 357.163 -43.8087 365.735C-7.5535 373.787 30.1295 367.801 62.3107 348.883C94.1271 330.177 117.865 300.533 129.164 265.424C137.087 240.78 150.613 219.172 168.267 202.927C181.979 190.309 191.384 173.906 195.458 155.484C196.925 148.868 197.623 142.236 197.631 135.698C197.631 94.5878 169.835 57.0185 129.001 47.0663C108.778 42.1375 87.3835 44.5348 68.7515 53.8167C47.5509 64.3762 22.8661 69.0605 -2.61806 67.3493C-37.6782 64.9992 -72.6452 75.5902 -101.063 97.1823C-129.783 119.003 -149.788 150.618 -157.378 186.208C-159.651 196.855 -160.777 207.58 -160.777 218.234Z" fill="url(#paint4_linear)"/>
<path d="M187.373 140.445C187.373 146.588 186.713 152.811 185.34 159.033C181.506 176.335 172.675 191.736 159.801 203.589C143.373 218.699 130.794 238.808 123.422 261.733C112.837 294.634 90.5888 322.409 60.7822 339.94C30.6265 357.667 -4.68973 363.282 -38.6557 355.735C-74.8255 347.699 -105.835 325.737 -125.988 293.901C-146.141 262.049 -152.923 224.266 -145.078 187.517C-137.962 154.167 -119.221 124.539 -92.309 104.098C-65.6841 83.8704 -32.921 73.9418 -0.0647278 76.15C23.6501 77.743 46.6123 73.3898 66.3307 63.5638C83.8297 54.8496 103.928 52.5942 122.917 57.2233C161.268 66.5526 187.373 101.843 187.373 140.445ZM184.843 158.922C194.815 113.885 166.979 68.4768 122.801 57.7044C103.921 53.1068 83.9461 55.3386 66.5558 64.0054C46.752 73.8709 23.7045 78.2397 -0.0957489 76.6389C-32.8356 74.4387 -65.4746 84.3357 -92.0063 104.493C-118.825 124.862 -137.496 154.388 -144.589 187.612C-152.403 224.235 -145.644 261.883 -125.569 293.617C-105.493 325.342 -74.5927 347.226 -38.5548 355.231C-4.70525 362.746 30.479 357.163 60.5261 339.498C90.2318 322.03 112.395 294.358 122.941 261.576C130.344 238.564 142.969 218.383 159.46 203.218C172.256 191.429 181.033 176.114 184.843 158.922Z" fill="url(#paint5_linear)"/>
<path d="M176.609 145.185C176.609 150.894 175.996 156.675 174.716 162.455C171.154 178.527 162.951 192.848 150.985 203.857C135.729 217.895 124.042 236.569 117.198 257.869C107.366 288.443 86.693 314.247 58.9972 330.532C30.9755 347.006 -1.83418 352.218 -33.3945 345.208C-66.9957 337.739 -95.8167 317.338 -114.542 287.749C-133.267 258.153 -139.568 223.052 -132.281 188.897C-125.67 157.913 -108.256 130.383 -83.2454 111.385C-58.5062 92.5925 -28.0633 83.3658 2.46487 85.4162C24.4958 86.8909 45.8206 82.8532 64.1422 73.729C80.4073 65.63 99.0781 63.5402 116.725 67.8381C152.351 76.5207 176.609 109.311 176.609 145.185ZM174.227 162.345C183.492 120.509 157.636 78.3344 116.6 68.327C99.0703 64.0527 80.5159 66.1347 64.3516 74.1785C45.9525 83.3421 24.5346 87.4034 2.41832 85.9209C-27.9935 83.8784 -58.3122 93.0657 -82.9583 111.795C-107.868 130.722 -125.212 158.142 -131.8 189.008C-139.064 223.028 -132.786 257.995 -114.131 287.473C-95.4831 316.944 -66.7784 337.274 -33.3014 344.711C-1.85747 351.698 30.828 346.501 58.7333 330.09C86.3282 313.868 106.916 288.16 116.709 257.711C123.584 236.332 135.318 217.579 150.644 203.487C162.54 192.541 170.688 178.322 174.227 162.345Z" fill="url(#paint6_linear)"/>
<path d="M165.846 149.925C165.846 155.2 165.28 160.539 164.1 165.878C160.81 180.728 153.228 193.953 142.178 204.126C128.086 217.09 117.299 234.337 110.975 254.005C101.887 282.245 82.7976 306.085 57.2048 321.132C31.3249 336.352 1.00616 341.162 -28.1485 334.688C-92.4565 320.398 -133.43 255.622 -119.493 190.293C-113.385 161.667 -97.2987 136.242 -74.1969 118.688C-51.3434 101.323 -23.2209 92.8056 4.97934 94.6983C25.3263 96.0626 45.0215 92.3325 61.9385 83.9023C76.962 76.4184 94.2205 74.4863 110.517 78.4609C143.435 86.4889 165.846 116.779 165.846 149.925ZM163.611 165.768C172.163 127.142 148.293 88.1923 110.4 78.9577C94.2127 75.0068 77.0784 76.931 62.1557 84.3597C45.1611 92.8293 25.3729 96.5752 4.94055 95.203C-23.1432 93.3183 -51.1417 101.804 -73.902 119.098C-96.903 136.573 -112.928 161.896 -119.004 190.404C-132.894 255.464 -92.084 319.964 -28.0399 334.191C0.998413 340.642 31.1775 335.847 56.9565 320.69C82.4407 305.706 101.453 281.969 110.501 253.847C116.857 234.101 127.69 216.775 141.844 203.755C152.817 193.653 160.344 180.523 163.611 165.768Z" fill="url(#paint7_linear)"/>
<defs>
<linearGradient id="paint0_linear" x1="13.9126" y1="412.736" x2="13.9126" y2="0.877881" gradientUnits="userSpaceOnUse">
<stop stop-color="#06F39C"/>
<stop offset="0.1904" stop-color="#6223BF"/>
<stop offset="0.5379" stop-color="#FF2E55"/>
<stop offset="0.7293" stop-color="#D0ADF1"/>
<stop offset="0.8598" stop-color="#06F39C"/>
<stop offset="1" stop-color="#6223BF"/>
</linearGradient>
<linearGradient id="paint1_linear" x1="15.0408" y1="401.988" x2="15.0408" y2="11.6726" gradientUnits="userSpaceOnUse">
<stop stop-color="#06F39C"/>
<stop offset="0.1904" stop-color="#6223BF"/>
<stop offset="0.5379" stop-color="#FF2E55"/>
<stop offset="0.7293" stop-color="#D0ADF1"/>
<stop offset="0.8598" stop-color="#06F39C"/>
<stop offset="1" stop-color="#6223BF"/>
</linearGradient>
<linearGradient id="paint2_linear" x1="16.1691" y1="391.24" x2="16.1691" y2="22.4673" gradientUnits="userSpaceOnUse">
<stop stop-color="#06F39C"/>
<stop offset="0.1904" stop-color="#6223BF"/>
<stop offset="0.5379" stop-color="#FF2E55"/>
<stop offset="0.7293" stop-color="#D0ADF1"/>
<stop offset="0.8598" stop-color="#06F39C"/>
<stop offset="1" stop-color="#6223BF"/>
</linearGradient>
<linearGradient id="paint3_linear" x1="17.2976" y1="380.491" x2="17.2976" y2="33.2626" gradientUnits="userSpaceOnUse">
<stop stop-color="#06F39C"/>
<stop offset="0.1904" stop-color="#6223BF"/>
<stop offset="0.5379" stop-color="#FF2E55"/>
<stop offset="0.7293" stop-color="#D0ADF1"/>
<stop offset="0.8598" stop-color="#06F39C"/>
<stop offset="1" stop-color="#6223BF"/>
</linearGradient>
<linearGradient id="paint4_linear" x1="18.426" y1="369.744" x2="18.426" y2="44.0574" gradientUnits="userSpaceOnUse">
<stop stop-color="#06F39C"/>
<stop offset="0.1904" stop-color="#6223BF"/>
<stop offset="0.5379" stop-color="#FF2E55"/>
<stop offset="0.7293" stop-color="#D0ADF1"/>
<stop offset="0.8598" stop-color="#06F39C"/>
<stop offset="1" stop-color="#6223BF"/>
</linearGradient>
<linearGradient id="paint5_linear" x1="19.5544" y1="358.995" x2="19.5544" y2="54.8519" gradientUnits="userSpaceOnUse">
<stop stop-color="#06F39C"/>
<stop offset="0.1904" stop-color="#6223BF"/>
<stop offset="0.5379" stop-color="#FF2E55"/>
<stop offset="0.7293" stop-color="#D0ADF1"/>
<stop offset="0.8598" stop-color="#06F39C"/>
<stop offset="1" stop-color="#6223BF"/>
</linearGradient>
<linearGradient id="paint6_linear" x1="20.6823" y1="348.247" x2="20.6823" y2="65.6468" gradientUnits="userSpaceOnUse">
<stop stop-color="#06F39C"/>
<stop offset="0.1904" stop-color="#6223BF"/>
<stop offset="0.5379" stop-color="#FF2E55"/>
<stop offset="0.7293" stop-color="#D0ADF1"/>
<stop offset="0.8598" stop-color="#06F39C"/>
<stop offset="1" stop-color="#6223BF"/>
</linearGradient>
<linearGradient id="paint7_linear" x1="21.8146" y1="337.499" x2="21.8146" y2="76.4424" gradientUnits="userSpaceOnUse">
<stop stop-color="#06F39C"/>
<stop offset="0.1904" stop-color="#6223BF"/>
<stop offset="0.5379" stop-color="#FF2E55"/>
<stop offset="0.7293" stop-color="#D0ADF1"/>
<stop offset="0.8598" stop-color="#06F39C"/>
<stop offset="1" stop-color="#6223BF"/>
</linearGradient>
</defs>
</svg>
